<svg xmlns="http://www.w3.org/2000/svg" viewBox="0 0 120 120" role="img" aria-labelledby="t d">
  <title id="t">OTOS brain logo</title>
  <desc id="d">Stylised brain mark with orange and teal accents.</desc>
  <defs>
    <linearGradient id="g1" x1="0%" y1="0%" x2="100%" y2="100%">
      <stop offset="0%" stop-color="#ff8a00"/>
      <stop offset="100%" stop-color="#5eead4"/>
    </linearGradient>
  </defs>
  <circle cx="60" cy="60" r="56" fill="#0f172a"/>
  <path d="M38 28c-10 0-18 8-18 18 0 8 5 15 12 17-3 10 4 21 15 22 6 1 12-2 16-7 4 5 10 8 16 7 11-1 18-12 15-22 7-2 12-9 12-17 0-10-8-18-18-18-6 0-11 3-14 7-3-4-8-7-14-7z" fill="url(#g1)"/>
  <path d="M44 44c5-2 10 3 8 8m24-8c-5-2-10 3-8 8m-18 14c6 5 14 5 20 0" fill="none" stroke="#0a0f1e" stroke-width="4" stroke-linecap="round"/>
</svg>
