<svg height="43" viewBox="0 0 150 43" width="150" xmlns="http://www.w3.org/2000/svg"><g fill="none" transform="translate(0 .3125)"><g fill="#000" transform="translate(0 12.168)"><path d="m10.2831 21.8183h-.2923c-6.5066 0-9.9908-3.9797-9.9908-10.3379 0-6.4139 3.4257-10.3379 9.9908-10.3379 6.565 0 9.9908 3.924 9.9908 10.3379 0 4.4959-1.7538 7.8187-5.0831 9.3379l4.7119 4.4372h-5.9892zm-.2923-3.9504c3.2153 0 4.5102-3.094 4.5102-6.3875 0-3.4635-1.2861-6.3845-4.5102-6.3845s-4.4897 2.921-4.4897 6.3845c0 3.2935 1.2715 6.3875 4.4955 6.3875z"/><path d="m22.2969 0h5.1678v8.4756h.0556c1.3124-1.6599 3.0545-2.2612 5.1094-2.2612 4.1097 0 6.3662 3.9211 6.3662 7.5313 0 4.3991-2.3705 8.0738-6.793 8.0738-2.3705 0-4.4546-1.3461-5.1094-3.006h-.0585v2.6629h-4.7381zm8.2779 10.1648c-1.8824 0-3.1393 1.66-3.1393 3.8947 0 2.1761 1.4264 3.8126 3.1393 3.8126 1.9409 0 3.1101-1.6336 3.1101-4.0091 0-1.9796-1.1108-3.6982-3.1101-3.6982z"/><path d="m39.8784 6.5578h3.037v-3.3521l5.0539-1.5749v4.927h3.5952v3.6073h-3.5952v5.4989c0 1.8036.4267 2.7216 2.0461 2.7216.5278-.0242 1.0528-.0919 1.5696-.2024l.1695 3.3521c-1.0642.1681-2.1383.2661-3.2152.2933-4.595 0-5.7087-2.0324-5.7087-5.5722v-6.0708h-2.9522z"/><path d="m58.0594 15.5184c.2923 2.0529 1.8561 2.8653 4.367 2.8653 1.583.0011 3.142-.3886 4.5394-1.135v3.6366c-1.7424.6539-3.5914.9742-5.4514.9444-4.9107 0-8.6492-2.8917-8.6492-7.8158 0-4.924 3.3381-7.7893 7.9623-7.7893 5.5098 0 7.5062 3.921 7.5062 8.3612v.9444zm5.6501-2.9327c0-1.7186-.7979-3.1204-2.8528-3.1204-1.8561 0-2.7388 1.4018-2.8528 3.1204z"/><path d="m82.376 10.8249c-.9338-.5752-2.0149-.8637-3.1101-.8299-2.2273 0-3.9402 1.5455-3.9402 4.1234 0 2.3755 1.9994 3.9211 4.2267 3.9211 1.1062.0166 2.2007-.2286 3.1948-.7156l.114 3.8389c-1.3563.4334-2.771.655-4.1945.657-4.9106 0-8.6491-2.8624-8.6491-7.7894s3.7385-7.8157 8.6491-7.8157c1.4093-.0404 2.8092.2435 4.0922.8299z"/><path d="m84.7139 0h5.1381v8.763h.056c.552-.8052 1.296-1.4598 2.163-1.9047.868-.445 1.832-.6662 2.806-.6439 4.054 0 5.679 2.8624 5.679 5.9564v9.3056h-5.135v-7.2145c0-2.8067-.971-3.7539-2.371-3.7539-2.11 0-3.195 1.4663-3.195 4.6689v6.2995h-5.1411z"/></g><g fill="#28abe2"><path d="m115.33 7.6691 20.031-7.6691s.213.0645.698.6159c.486.5513 13.005 15.6315 13.005 15.6315l-21.423 10.7455z"/><path d="m113.903 9.6094-2.841 14.3205 11.04 17.7108 3.777-13.2178z"/><path d="m124.426 42.3732 19.379-9.7103 5.343-13.9188-21.115 10.5814z"/></g></g></svg>